<svg width="219" height="168" viewBox="0 0 219 168" fill="none" xmlns="http://www.w3.org/2000/svg">
<path d="M87.6 168H9.73333C4.36637 168 0 164.232 0 159.6V90.3C0 85.6682 4.36637 81.9 9.73333 81.9H43.8V73.5C43.8 58.4468 29.6093 46.2 12.1667 46.2C9.23255 46.2 4.86667 44.5221 4.86667 39.9V6.3C4.86667 1.6779 9.23255 0 12.1667 0C59.1276 0 97.3333 32.9721 97.3333 73.5V159.6C97.3333 164.232 92.967 168 87.6 168ZM92.4667 73.5C92.4667 35.288 56.4441 4.20001 12.1667 4.20001C11.4352 4.20001 9.73333 4.40454 9.73333 6.3V39.9C9.73333 41.5913 11.0722 41.9756 12.1667 42C32.2928 42 48.6667 56.1309 48.6667 73.5V84C48.6667 85.1596 47.577 86.1 46.2333 86.1H9.73333C7.04985 86.1 4.86667 87.9841 4.86667 90.3V159.6C4.86667 161.916 7.04985 163.8 9.73333 163.8H87.6C90.2835 163.8 92.4667 161.916 92.4667 159.6V73.5ZM209.267 168H131.4C126.033 168 121.667 164.232 121.667 159.6V90.3C121.667 85.6682 126.033 81.9 131.4 81.9H165.467V73.5C165.467 58.4468 151.276 46.2 133.833 46.2C130.899 46.2 126.533 44.5221 126.533 39.9V6.3C126.533 1.6779 130.899 0 133.833 0C180.794 0 219 32.9721 219 73.5V159.6C219 164.232 214.634 168 209.267 168ZM214.133 73.5C214.133 35.288 178.111 4.20001 133.833 4.20001C133.102 4.20001 131.4 4.40454 131.4 6.3V39.9C131.4 41.5913 132.739 41.9756 133.833 42C153.959 42 170.333 56.1309 170.333 73.5V84C170.333 85.1596 169.244 86.1 167.9 86.1H131.4C128.717 86.1 126.533 87.9841 126.533 90.3V159.6C126.533 161.916 128.717 163.8 131.4 163.8H209.267C211.95 163.8 214.133 161.916 214.133 159.6V73.5Z" fill="white" fill-opacity="0.12"/>
</svg>
