<svg width="219" height="168" viewBox="0 0 219 168" fill="none" xmlns="http://www.w3.org/2000/svg">
<path d="M87.6 0H9.73333C4.36637 0 0 3.76824 0 8.4V77.7C0 82.3318 4.36637 86.1 9.73333 86.1H43.8V94.5C43.8 109.553 29.6093 121.8 12.1667 121.8C9.23255 121.8 4.86667 123.478 4.86667 128.1V161.7C4.86667 166.322 9.23255 168 12.1667 168C59.1276 168 97.3333 135.028 97.3333 94.5V8.4C97.3333 3.76824 92.967 0 87.6 0ZM92.4667 94.5C92.4667 132.712 56.4441 163.8 12.1667 163.8C11.4352 163.8 9.73333 163.595 9.73333 161.7V128.1C9.73333 126.409 11.0722 126.024 12.1667 126C32.2928 126 48.6667 111.869 48.6667 94.5V84C48.6667 82.8404 47.577 81.9 46.2333 81.9H9.73333C7.04985 81.9 4.86667 80.0159 4.86667 77.7V8.4C4.86667 6.08412 7.04985 4.2 9.73333 4.2H87.6C90.2835 4.2 92.4667 6.08412 92.4667 8.4V94.5ZM209.267 0H131.4C126.033 0 121.667 3.76824 121.667 8.4V77.7C121.667 82.3318 126.033 86.1 131.4 86.1H165.467V94.5C165.467 109.553 151.276 121.8 133.833 121.8C130.899 121.8 126.533 123.478 126.533 128.1V161.7C126.533 166.322 130.899 168 133.833 168C180.794 168 219 135.028 219 94.5V8.4C219 3.76824 214.634 0 209.267 0ZM214.133 94.5C214.133 132.712 178.111 163.8 133.833 163.8C133.102 163.8 131.4 163.595 131.4 161.7V128.1C131.4 126.409 132.739 126.024 133.833 126C153.959 126 170.333 111.869 170.333 94.5V84C170.333 82.8404 169.244 81.9 167.9 81.9H131.4C128.717 81.9 126.533 80.0159 126.533 77.7V8.4C126.533 6.08412 128.717 4.2 131.4 4.2H209.267C211.95 4.2 214.133 6.08412 214.133 8.4V94.5Z" fill="white" fill-opacity="0.12"/>
</svg>
