<svg width="33" height="33" viewBox="0 0 33 33" fill="none" xmlns="http://www.w3.org/2000/svg">
<path d="M23.0248 22.8134C22.8408 22.8134 22.6633 22.7146 22.5765 22.541C22.4781 22.3434 22.5189 22.1138 22.6659 21.9674C22.6743 21.9583 22.6834 21.9495 22.6925 21.9411L28.8022 16.3623C29.0776 16.106 29.0951 15.6675 28.8379 15.3876L25.4808 11.7254C24.8893 11.0338 24.9489 10.0701 25.5767 9.49098C25.9634 9.1337 26.5167 8.9983 27.0278 9.13823C28.1421 9.41033 29.3367 9.10325 30.2029 8.31451C30.9744 7.61063 31.3839 6.60195 31.3256 5.54727C31.2673 4.48903 30.7328 3.5176 29.8602 2.88239C28.7971 2.12896 27.3167 2.04118 26.1817 2.6699C24.8576 3.43241 24.1728 4.82137 24.4021 6.29067C24.4734 6.81865 24.2939 7.31943 23.9104 7.67445C23.2729 8.26268 22.2772 8.22446 21.6877 7.58764L18.3293 3.91699C18.2075 3.77965 18.043 3.70223 17.8616 3.69349C17.6789 3.69089 17.504 3.74855 17.3699 3.87261L13.6986 7.23197C13.6863 7.24331 13.6467 7.27376 13.6331 7.2838C13.0151 7.81924 12.0531 7.76514 11.4713 7.13609C11.1156 6.75128 10.9802 6.21098 11.1085 5.69077C11.3916 4.55835 11.0904 3.37281 10.3032 2.51863C9.58609 1.73669 8.56121 1.31884 7.51171 1.38233C6.44796 1.44225 5.50989 1.95955 4.86918 2.83899C4.10668 3.905 4.01987 5.38369 4.6554 6.51514C5.40106 7.84159 6.78743 8.52765 8.26774 8.30997C8.7737 8.22478 9.29586 8.40294 9.65735 8.78484C10.2469 9.45244 10.1996 10.4281 9.56082 11.0183L5.8973 14.3763C5.6142 14.6364 5.59347 15.0634 5.85066 15.3481L9.39109 19.2056C9.47531 19.2976 9.52195 19.4175 9.52195 19.5422C9.52195 19.8169 9.2991 20.043 9.02441 20.043C8.85727 20.043 8.70892 19.9617 8.61887 19.836L5.11471 16.0179C4.49473 15.3309 4.54526 14.2672 5.22485 13.6433L8.88707 10.2862C9.12353 10.0672 9.14038 9.70218 8.9227 9.45632C8.79896 9.32546 8.61239 9.261 8.42257 9.29274C6.54125 9.57196 4.72731 8.67244 3.78794 7.00264C2.96713 5.54112 3.07726 3.63421 4.06198 2.25691C4.87242 1.14425 6.1085 0.464664 7.456 0.388867C8.81905 0.310802 10.1186 0.843649 11.0359 1.84521C12.0498 2.94588 12.4385 4.47348 12.0744 5.93047C12.0271 6.12385 12.0744 6.32273 12.2021 6.46105C12.4171 6.69394 12.7728 6.71305 13.0112 6.50834C13.0203 6.50024 13.0566 6.47303 13.0663 6.46591L16.6955 3.1412C17.0233 2.83575 17.4573 2.6793 17.9089 2.6997C18.3591 2.72076 18.7705 2.9164 19.0678 3.25004L22.4204 6.91388C22.6374 7.1484 22.9957 7.16427 23.2347 6.94401C23.3785 6.81055 23.444 6.62916 23.4174 6.43416C23.1291 4.58718 24.0212 2.76546 25.6926 1.80342C27.1613 0.991032 29.0659 1.09987 30.4406 2.07422C31.5614 2.88984 32.2442 4.13434 32.3187 5.49253C32.3938 6.84683 31.8665 8.14348 30.8734 9.05013C29.7604 10.0617 28.2283 10.4546 26.7777 10.1012C26.5905 10.051 26.3845 10.1003 26.2517 10.2221C26.0211 10.4352 25.9978 10.8022 26.2005 11.0406L29.5712 14.7148C30.1964 15.3963 30.1543 16.4637 29.4766 17.094L23.4051 22.6379C23.363 22.6881 23.3105 22.7302 23.2503 22.7603C23.1784 22.7963 23.1006 22.8134 23.0248 22.8134Z" fill="white"/>
<path d="M22.4089 20.1905C22.3668 20.1905 22.3247 20.1876 22.282 20.1818C22.0371 20.1504 21.8453 19.9414 21.8453 19.6881C21.8453 19.4135 22.0643 19.1906 22.339 19.1906H22.3461C22.3714 19.1906 22.3966 19.1925 22.4219 19.1964L23.1164 17.9195L21.925 17.2737C21.7261 17.1593 21.6315 16.9238 21.695 16.7036C21.8149 16.2922 21.8751 15.8568 21.8751 15.4092C21.8751 14.9661 21.8149 14.533 21.695 14.1216C21.6315 13.9013 21.7261 13.6658 21.925 13.5515L23.1261 12.8616L22.3662 11.6044L21.2105 12.3161C21.0116 12.432 20.7583 12.3971 20.5989 12.2296C19.9938 11.595 19.2229 11.1503 18.3684 10.944C18.1449 10.8902 17.9875 10.69 17.9875 10.4603V9.07398L16.5279 9.10702L16.5609 10.4603C16.5609 10.6897 16.4041 10.8895 16.1806 10.9436C15.3294 11.1509 14.5604 11.5957 13.956 12.2296C13.7972 12.3971 13.5439 12.433 13.3444 12.3158L12.144 11.6125L11.4391 12.905L12.624 13.5522C12.8203 13.6655 12.9149 13.8971 12.8546 14.1154C12.7348 14.5505 12.6739 14.9858 12.6739 15.4092C12.6739 15.8371 12.7348 16.2747 12.8546 16.7097C12.9155 16.9287 12.8197 17.1606 12.6234 17.2737L11.4223 17.9636L11.6425 18.2891C11.7935 18.4773 11.7922 18.7543 11.6257 18.9379C11.4411 19.1414 11.1301 19.1595 10.926 18.9749C10.8878 18.9396 10.8476 18.892 10.8217 18.8463L10.5762 18.4151C10.3164 17.9351 10.4719 17.3621 10.926 17.101L11.8039 16.5967C11.7209 16.1999 11.6788 15.8018 11.6788 15.4092C11.6788 15.0198 11.7209 14.6237 11.8039 14.2275L10.9325 13.7238C10.7116 13.6007 10.549 13.3921 10.4823 13.1398C10.4168 12.8949 10.4492 12.6371 10.5736 12.4139L11.3277 11.1072C11.5862 10.6573 12.1731 10.4953 12.6331 10.7464L13.52 11.2656C14.1095 10.7286 14.8059 10.3266 15.5658 10.0836V9.07398C15.5658 8.5434 15.9973 8.11194 16.5279 8.11194H18.027C18.5537 8.11194 18.9825 8.5434 18.9825 9.07398V10.083C19.7457 10.3253 20.4441 10.7276 21.0349 11.2656L21.9088 10.7538C22.3811 10.4976 22.9518 10.6515 23.2226 11.0978L23.9774 12.4077C24.2391 12.8739 24.0784 13.4621 23.6223 13.7242L22.7471 14.2272C22.8287 14.611 22.8702 15.0072 22.8702 15.4092C22.8702 15.8147 22.8287 16.2131 22.7471 16.598L23.6223 17.1007C24.0797 17.3644 24.2384 17.9377 23.9838 18.4067L23.2272 19.7118C23.0458 20.0143 22.7361 20.1905 22.4089 20.1905ZM17.2748 17.8765C15.9157 17.8765 14.8105 16.7709 14.8105 15.4121C14.8105 14.0533 15.9157 12.948 17.2748 12.948C18.6334 12.948 19.7386 14.0533 19.7386 15.4121C19.7386 16.7709 18.6334 17.8765 17.2748 17.8765ZM17.2748 13.9431C16.4644 13.9431 15.8055 14.602 15.8055 15.4121C15.8055 16.2222 16.4644 16.8814 17.2748 16.8814C18.0846 16.8814 18.7435 16.2222 18.7435 15.4121C18.7435 14.602 18.0846 13.9431 17.2748 13.9431Z" fill="white"/>
<path d="M21.3006 31.0533H10.5277C10.1727 31.0533 9.82354 30.9723 9.51646 30.8194L6.39453 29.3041V20.7284L9.69462 18.7609C10.2446 18.4311 10.875 18.2565 11.5157 18.2565H19.9609C21.6388 18.2565 23.0679 19.4544 23.3588 21.1044C23.3977 21.3127 23.4171 21.5184 23.4171 21.7128C23.4171 21.9301 23.397 22.1445 23.3575 22.3538L27.6689 18.3323C28.7151 17.3541 30.3827 17.3888 31.3887 18.4085C31.8863 18.9138 32.1603 19.5807 32.1603 20.2865C32.1603 20.9998 31.8649 21.6959 31.3505 22.196L22.952 30.3818C22.5114 30.8146 21.9245 31.0533 21.3006 31.0533ZM7.05792 28.8889L9.80993 30.2244C10.0283 30.3332 10.2751 30.3899 10.5277 30.3899H21.3006C21.7496 30.3899 22.1713 30.2185 22.4881 29.9076L30.888 21.7209C31.2747 21.3445 31.4969 20.8217 31.4969 20.2865C31.4969 19.756 31.2909 19.2545 30.9158 18.8743C30.1611 18.1079 28.9082 18.0826 28.1217 18.8173L22.4071 24.1473H21.5092L22.0145 23.5883C22.4913 23.0816 22.7537 22.4153 22.7537 21.7128C22.7537 21.5586 22.7375 21.3937 22.7058 21.2223C22.4706 19.8872 21.3162 18.9199 19.9609 18.9199H11.5157C10.9948 18.9199 10.483 19.0618 10.0347 19.3303L7.05792 21.1054V28.8889Z" fill="white"/>
<path d="M19.9635 25.3271H13.3549C13.0803 25.3271 12.8574 25.1042 12.8574 24.8296C12.8574 24.5549 13.0803 24.332 13.3549 24.332H19.9635C21.4095 24.332 22.5853 23.1559 22.5853 21.7102C22.5853 20.2642 21.4095 19.0881 19.9635 19.0881H11.5183C11.0247 19.0881 10.5394 19.2216 10.1164 19.4745L6.97893 21.3452C6.74441 21.4861 6.43864 21.409 6.29676 21.1728C6.15618 20.9367 6.23327 20.6312 6.46973 20.4907L9.60656 18.62C10.1838 18.2754 10.8446 18.093 11.5183 18.093H19.9635C21.9576 18.093 23.5804 19.7155 23.5804 21.7102C23.5804 23.7046 21.9576 25.3271 19.9635 25.3271Z" fill="white"/>
<path d="M21.3005 31.2185H10.5244C10.1532 31.2185 9.78005 31.1327 9.44642 30.9708L6.50718 29.5436C6.2597 29.4234 6.1567 29.1257 6.27655 28.8786C6.39704 28.6321 6.69375 28.5278 6.94123 28.6483L9.88047 30.0754C10.08 30.1723 10.3029 30.2235 10.5244 30.2235H21.3005C21.7035 30.2235 22.0844 30.0686 22.3734 29.7872L30.7732 21.604C31.1269 21.2597 31.3245 20.7984 31.3297 20.3048C31.3349 19.8111 31.147 19.3453 30.8004 18.9935C30.0949 18.2777 28.9664 18.2553 28.2337 18.9398L22.615 24.1821C22.4142 24.369 22.1006 24.3589 21.9115 24.1578C21.7242 23.9569 21.7352 23.6421 21.9361 23.4545L27.5548 18.2122C28.6865 17.1566 30.4227 17.1935 31.5092 18.2952C32.043 18.8374 32.3326 19.5549 32.3248 20.3154C32.3164 21.0757 32.0125 21.7864 31.4677 22.3166L23.0678 30.5001C22.5917 30.9633 21.9646 31.2185 21.3005 31.2185Z" fill="white"/>
<path d="M6.06191 32.3812H1.7065C1.06709 32.3812 0.546875 31.861 0.546875 31.2216V18.9639C0.546875 18.3248 1.06709 17.8046 1.7065 17.8046H6.06191C6.70133 17.8046 7.22154 18.3248 7.22154 18.9639V31.2216C7.22154 31.861 6.70133 32.3812 6.06191 32.3812ZM1.7065 18.7996C1.61581 18.7996 1.54195 18.8732 1.54195 18.9639V31.2216C1.54195 31.3123 1.61581 31.3862 1.7065 31.3862H6.06191C6.15261 31.3862 6.22647 31.3123 6.22647 31.2216V18.9639C6.22647 18.8732 6.15261 18.7996 6.06191 18.7996H1.7065Z" fill="white"/>
<path d="M4.09699 21.2104H3.66941C3.39473 21.2104 3.17188 20.9876 3.17188 20.7129C3.17188 20.4382 3.39473 20.2153 3.66941 20.2153H4.09699C4.37167 20.2153 4.59453 20.4382 4.59453 20.7129C4.59453 20.9876 4.37167 21.2104 4.09699 21.2104Z" fill="white"/>
<path d="M21.049 22.2102C18.9675 22.2102 17.1749 20.726 16.7862 18.6811C16.7584 18.5353 16.7966 18.385 16.8912 18.271C16.9858 18.1567 17.1264 18.0906 17.2747 18.0906H19.9613C21.7202 18.0906 23.218 19.3461 23.5225 21.0755C23.5581 21.2773 23.4667 21.4804 23.2918 21.587C22.6226 21.9948 21.8471 22.2102 21.049 22.2102ZM17.9329 19.0857C18.4259 20.3489 19.6536 21.2151 21.049 21.2151C21.542 21.2151 22.0227 21.1089 22.4587 20.9061C22.1166 19.8329 21.117 19.0857 19.9613 19.0857H17.9329Z" fill="white"/>
</svg>
