<svg width="33" height="32" viewBox="0 0 33 32" fill="none" xmlns="http://www.w3.org/2000/svg">
<path d="M31.6836 15.6937H29.0052L29.0025 11.5453L29.272 11.2796C29.5562 11.4758 29.8995 11.5923 30.27 11.5923C31.2412 11.5923 32.0311 10.8023 32.0311 9.83082C32.0311 8.8593 31.2412 8.0697 30.27 8.0697C29.2988 8.0697 28.5085 8.85965 28.5085 9.83082C28.5085 10.1801 28.6136 10.5039 28.7896 10.7783L28.5054 11.0587C28.3812 11.1902 28.3099 11.3669 28.3099 11.5439V15.6937H27.2292V11.5439C27.2292 11.3599 27.1554 11.1804 27.0267 11.0517L26.6347 10.6597C26.7686 10.4114 26.8514 10.132 26.8514 9.83082C26.8514 8.85965 26.0615 8.0697 25.0899 8.0697C24.1184 8.0697 23.3285 8.85965 23.3285 9.83082C23.3285 10.802 24.1184 11.5923 25.0899 11.5923C25.507 11.5923 25.8858 11.4406 26.1877 11.1975L26.5331 11.5439V15.6937H23.8746C23.6826 15.6937 23.5268 15.8492 23.5268 16.0415C23.5257 19.0702 21.7183 21.7743 18.9224 22.9319C17.082 23.6937 15.0554 23.693 13.215 22.9305C11.3749 22.1677 9.94219 20.7342 9.18042 18.8938C8.80405 17.9849 8.61378 17.0256 8.61413 16.0422C8.61413 15.95 8.57761 15.8613 8.51256 15.7959C8.44717 15.7305 8.35882 15.694 8.26629 15.694H5.78062L5.77784 11.5457L6.04707 11.2799C6.33125 11.4761 6.67422 11.5926 7.04502 11.5926C8.01619 11.5926 8.80649 10.8027 8.80649 9.83117C8.80649 8.85965 8.01654 8.07005 7.04502 8.07005C6.0735 8.07005 5.28356 8.86 5.28356 9.83117C5.28356 10.1804 5.38861 10.5046 5.56496 10.7787L5.28112 11.0587C5.1566 11.1902 5.08494 11.3672 5.08494 11.5443V15.694H4.0042V11.5443C4.0042 11.3603 3.93046 11.1808 3.80176 11.0521L3.40974 10.6601C3.54366 10.4117 3.62645 10.1324 3.62645 9.83117C3.62645 8.86 2.8365 8.07005 1.86498 8.07005C0.893462 8.07005 0.103516 8.86 0.103516 9.83117C0.103516 10.8023 0.893462 11.5926 1.86498 11.5926C2.28204 11.5926 2.66084 11.441 2.96277 11.1978L3.30817 11.5443V15.694H0.458313C0.365787 15.694 0.277436 15.7305 0.212042 15.7959C0.146648 15.8613 0.110125 15.9497 0.110472 16.0422C0.110472 16.3859 0.122299 16.7316 0.144561 17.0697C0.17691 17.564 0.505619 17.9929 0.981465 18.1623L3.24834 18.9689C3.42018 19.0302 3.55201 19.1776 3.60175 19.3637C3.74854 19.9165 3.93185 20.4594 4.14612 20.9777C4.36039 21.496 4.61466 22.0098 4.90163 22.5047C4.99798 22.6714 5.00911 22.8689 4.9305 23.0335L3.89707 25.2064C3.67966 25.6628 3.75062 26.1985 4.07725 26.571C4.53153 27.0896 5.02198 27.5808 5.53435 28.0316C5.90619 28.3582 6.44187 28.4292 6.89893 28.2121L9.0785 27.1766C9.24094 27.099 9.43643 27.1101 9.6013 27.2062C10.5867 27.7763 11.6442 28.2145 12.7447 28.5092C12.9291 28.5586 13.0752 28.689 13.1354 28.8584L13.9434 31.1322C14.1128 31.6091 14.5417 31.9375 15.0356 31.9698C15.3734 31.9917 15.7143 32.0029 16.0565 32.0029C16.404 32.0029 16.7522 31.9914 17.099 31.9688C17.5933 31.9364 18.0222 31.6077 18.1916 31.1315L18.9982 28.865C19.0594 28.6932 19.2073 28.561 19.393 28.5116C19.9457 28.3648 20.4887 28.1815 21.007 27.9672C21.5246 27.753 22.0383 27.499 22.534 27.2121C22.7006 27.1157 22.8982 27.1046 23.0627 27.1832L25.2353 28.2166C25.6917 28.4337 26.2277 28.3631 26.6003 28.0364C27.1189 27.5818 27.6101 27.0917 28.0605 26.5793C28.3875 26.2075 28.4584 25.6722 28.2414 25.2151L27.2059 23.0355C27.1286 22.8731 27.1398 22.6776 27.2351 22.5124C27.8055 21.5266 28.2438 20.4688 28.5381 19.369C28.5875 19.1846 28.7183 19.0385 28.8873 18.9783L31.1612 18.1703C31.6381 18.0012 31.9668 17.5724 31.9988 17.0781C32.0207 16.7386 32.0318 16.39 32.0315 16.0426C32.0315 15.8505 31.8756 15.6947 31.6836 15.6947V15.6937ZM30.27 8.76538C30.8575 8.76538 31.3354 9.24366 31.3354 9.83082C31.3354 10.418 30.8575 10.8966 30.27 10.8966C29.9712 10.8966 29.702 10.7724 29.5082 10.5738C29.5054 10.571 29.5047 10.5672 29.502 10.5644C29.5009 10.5634 29.4995 10.563 29.4981 10.562C29.3169 10.371 29.2042 10.1147 29.2042 9.83117C29.2042 9.24366 29.6825 8.76538 30.27 8.76538ZM25.0899 10.8966C24.5024 10.8966 24.0242 10.4183 24.0242 9.83082C24.0242 9.24332 24.5024 8.76538 25.0899 8.76538C25.6775 8.76538 26.1557 9.24366 26.1557 9.83082C26.1557 10.418 25.6775 10.8966 25.0899 10.8966ZM7.04572 8.76538C7.63322 8.76538 8.1115 9.24366 8.1115 9.83082C8.1115 10.418 7.63322 10.8966 7.04572 10.8966C6.74762 10.8966 6.47839 10.7728 6.28464 10.5745C6.28186 10.5714 6.28082 10.5672 6.27769 10.5641C6.27664 10.563 6.2749 10.5627 6.27351 10.5613C6.09263 10.3703 5.97959 10.114 5.97959 9.83047C5.97959 9.24297 6.45787 8.76504 7.04537 8.76504L7.04572 8.76538ZM1.86568 10.8966C1.27817 10.8966 0.799892 10.4183 0.799892 9.83082C0.799892 9.24332 1.27817 8.76538 1.86568 8.76538C2.45318 8.76538 2.93146 9.24366 2.93146 9.83082C2.93146 10.418 2.45318 10.8966 1.86568 10.8966ZM31.3041 17.0318C31.2902 17.2485 31.1427 17.4374 30.9278 17.5136L28.6539 18.3216C28.2689 18.4587 27.9739 18.7825 27.8657 19.1881C27.5871 20.2288 27.1725 21.2299 26.6326 22.1628C26.4222 22.5263 26.4013 22.9635 26.577 23.3329L27.6125 25.5125C27.7102 25.7181 27.6807 25.956 27.5377 26.1192C27.1071 26.6089 26.6371 27.0778 26.1411 27.5126C25.9801 27.6538 25.7355 27.6841 25.5338 27.5877L23.3612 26.5543C22.989 26.3772 22.5493 26.3981 22.1848 26.6096C21.7159 26.8813 21.23 27.1216 20.7406 27.3241C20.2508 27.5269 19.737 27.7001 19.2139 27.8389C18.8062 27.9474 18.4806 28.2434 18.3425 28.6313L17.5359 30.8978C17.4608 31.1089 17.2667 31.2602 17.0531 31.2741C16.3946 31.3173 15.731 31.3176 15.0805 31.2752C14.8641 31.2613 14.6749 31.1134 14.5987 30.8988L13.7907 28.6253C13.654 28.2403 13.3302 27.9453 12.9242 27.8368C11.8828 27.5582 10.8821 27.1432 9.94949 26.6037C9.74983 26.4879 9.52791 26.4298 9.30668 26.4298C9.1258 26.4298 8.94562 26.4691 8.77936 26.548L6.59979 27.5836C6.39456 27.6813 6.15629 27.6521 5.99315 27.5088C5.50305 27.0781 5.0345 26.6082 4.5997 26.1122C4.45883 25.9511 4.42857 25.707 4.52457 25.5049L5.558 23.3319C5.73505 22.9604 5.71418 22.5204 5.5027 22.1555C5.23103 21.687 4.99068 21.2014 4.78788 20.7116C4.58544 20.2219 4.41187 19.7081 4.27308 19.1849C4.16455 18.7776 3.86854 18.4517 3.48105 18.314L1.21417 17.5073C1.00338 17.4322 0.852069 17.2381 0.838155 17.0245C0.824241 16.8151 0.81485 16.6029 0.809632 16.39H7.9261C7.96576 17.3438 8.17133 18.274 8.5383 19.1599C9.37103 21.1722 10.9374 22.7395 12.9493 23.5733C14.9608 24.4067 17.1769 24.4078 19.1888 23.5747C22.1382 22.3541 24.0816 19.5585 24.2155 16.3897H31.3319C31.3271 16.6061 31.318 16.8207 31.3041 17.0318Z" fill="white"/>
<path d="M10.9649 7.34376C11.3246 7.34376 11.6589 7.23454 11.9378 7.04879L13.8224 8.93165V10.8969H11.6721C11.2884 10.8969 10.9764 11.209 10.9764 11.5926V20.3916C10.9764 20.7753 11.2884 21.0873 11.6721 21.0873H20.4707C20.8544 21.0873 21.1664 20.7753 21.1664 20.3916V11.5926C21.1664 11.209 20.8544 10.8969 20.4707 10.8969H18.3204L18.319 8.93165L20.2046 7.04879C20.4836 7.23454 20.8179 7.3441 21.1775 7.3441C22.1487 7.3441 22.939 6.55416 22.939 5.58299C22.939 4.61182 22.1491 3.82152 21.1775 3.82152C20.206 3.82152 19.4161 4.61147 19.4161 5.58299C19.4161 5.94335 19.5256 6.27832 19.7121 6.55764L17.8205 8.44641C17.6943 8.57963 17.6247 8.75216 17.6247 8.932V10.8973H16.4191V3.49073C17.2243 3.32863 17.8327 2.6166 17.8327 1.76439C17.8327 0.793224 17.0428 0.00292969 16.0712 0.00292969C15.0997 0.00292969 14.3101 0.792876 14.3101 1.76439C14.3101 2.6166 14.9185 3.32863 15.7234 3.49073V10.8969H14.5178V8.93165C14.5178 8.75216 14.4482 8.57963 14.315 8.43911L12.4297 6.55729C12.6161 6.27797 12.7257 5.943 12.7257 5.58264C12.7257 4.61147 11.9358 3.82118 10.9642 3.82118C9.99272 3.82118 9.20312 4.61112 9.20312 5.58264C9.20312 6.55416 9.99307 7.34376 10.9642 7.34376H10.9649ZM21.1779 4.51686C21.7654 4.51686 22.2437 4.99514 22.2437 5.58264C22.2437 6.17014 21.7654 6.64808 21.1779 6.64808C20.5904 6.64808 20.1121 6.1698 20.1121 5.58264C20.1121 4.99549 20.5904 4.51686 21.1779 4.51686ZM15.0058 1.76439C15.0058 1.17689 15.4841 0.698611 16.0712 0.698611C16.6584 0.698611 17.137 1.17689 17.137 1.76439C17.137 2.3519 16.6587 2.83018 16.0712 2.83018C15.4837 2.83018 15.0058 2.3519 15.0058 1.76439ZM14.1752 11.5923H20.4707V20.3913H11.6721V11.5923H14.1752ZM10.9649 4.51651C11.5524 4.51651 12.0307 4.99479 12.0307 5.58229C12.0307 6.1698 11.5524 6.64773 10.9649 6.64773C10.3774 6.64773 9.8995 6.16945 9.8995 5.58229C9.8995 4.99514 10.3778 4.51651 10.9649 4.51651Z" fill="white"/>
<path d="M16.07 19.7102C18.1202 19.7102 19.788 18.0423 19.788 15.9921C19.788 14.6439 19.0548 13.3997 17.876 12.7457C16.7785 12.1287 15.3597 12.1297 14.265 12.7447C13.0848 13.3997 12.3516 14.6439 12.3516 15.9921C12.3516 18.0423 14.0198 19.7102 16.07 19.7102ZM14.6045 13.3517C15.0494 13.1016 15.5562 12.9694 16.07 12.9694C16.5837 12.9694 17.0905 13.1016 17.5372 13.3527C18.4965 13.8849 19.0927 14.8964 19.0927 15.9918C19.0927 17.6586 17.7368 19.0142 16.0703 19.0142C14.4038 19.0142 13.0479 17.6583 13.0479 15.9918C13.0479 14.8964 13.6438 13.8849 14.6049 13.3517H14.6045Z" fill="white"/>
<path d="M16.0715 17.4054C16.851 17.4054 17.4848 16.7713 17.4848 15.9921C17.4848 15.213 16.8506 14.5789 16.0715 14.5789C15.2923 14.5789 14.6582 15.213 14.6582 15.9921C14.6582 16.7713 15.2923 17.4054 16.0715 17.4054ZM16.0715 15.2742C16.4673 15.2742 16.7891 15.5963 16.7891 15.9918C16.7891 16.3873 16.467 16.7094 16.0715 16.7094C15.676 16.7094 15.3539 16.3873 15.3539 15.9918C15.3539 15.5963 15.676 15.2742 16.0715 15.2742Z" fill="white"/>
</svg>
