<svg width="70" height="50" viewBox="0 0 70 50" fill="none" xmlns="http://www.w3.org/2000/svg">
<path fill-rule="evenodd" clip-rule="evenodd" d="M11.3525 23.9939H48.3686C53.0369 23.9939 56.8542 27.9697 56.8542 32.8318C56.8542 37.694 53.0369 41.6697 48.3686 41.6697H19.8381C15.1698 41.6697 11.3525 37.694 11.3525 32.8318V23.9939Z" fill="#00BBAE"/>
<path d="M11.3525 23.0904H48.3685C50.9382 23.0904 53.2765 24.1833 54.9703 25.9475C56.6641 27.7116 57.7134 30.147 57.7134 32.8233C57.7134 35.4996 56.6641 37.935 54.9703 39.6992C53.2765 41.4633 50.9382 42.5562 48.3685 42.5562H19.8381C17.2684 42.5562 14.9301 41.4633 13.2363 39.6992C11.5425 37.935 10.4932 35.4996 10.4932 32.8233V23.9854V23.0818H11.3525V23.0904ZM48.3685 24.8976H12.22V32.8319C12.22 35.0091 13.0793 36.997 14.4592 38.4341C15.839 39.8713 17.7476 40.7663 19.8381 40.7663H48.3685C50.4589 40.7663 52.3676 39.8713 53.7474 38.4341C55.1273 36.997 55.9866 35.0091 55.9866 32.8319C55.9866 30.6547 55.1273 28.6668 53.7474 27.2297C52.3676 25.7839 50.4589 24.8976 48.3685 24.8976Z" fill="#103741"/>
<path fill-rule="evenodd" clip-rule="evenodd" d="M24.3494 34.0798C27.8941 34.0798 30.7612 37.0659 30.7612 40.7577C30.7612 44.4495 27.8941 47.4357 24.3494 47.4357C20.8048 47.4357 17.9377 44.4495 17.9377 40.7577C17.9377 37.0659 20.8048 34.0798 24.3494 34.0798ZM24.3494 38.5461C25.5227 38.5461 26.4647 39.5358 26.4647 40.7492C26.4647 41.9625 25.5145 42.9522 24.3494 42.9522C23.1762 42.9522 22.2342 41.9625 22.2342 40.7492C22.2342 39.5358 23.1762 38.5461 24.3494 38.5461Z" fill="white"/>
<path d="M24.3493 33.2278C26.3489 33.2278 28.1501 34.0711 29.4638 35.4308C30.7693 36.7905 31.579 38.6751 31.579 40.7577C31.579 42.8402 30.7693 44.7162 29.4638 46.0845C28.1584 47.4442 26.3489 48.2875 24.3493 48.2875C22.3498 48.2875 20.5486 47.4442 19.2349 46.0845C17.9294 44.7248 17.1196 42.8402 17.1196 40.7577C17.1196 38.6751 17.9294 36.7991 19.2349 35.4308C20.5486 34.0711 22.3498 33.2278 24.3493 33.2278ZM28.3071 36.6356C27.2991 35.5771 25.8944 34.9317 24.3493 34.9317C22.8042 34.9317 21.4079 35.5857 20.3916 36.6356C19.3753 37.6941 18.7556 39.1484 18.7556 40.7577C18.7556 42.3669 19.3836 43.8212 20.3916 44.8797C21.4079 45.9382 22.8042 46.5836 24.3493 46.5836C25.8944 46.5836 27.2908 45.9296 28.3071 44.8797C29.3234 43.8299 29.9431 42.3669 29.9431 40.7577C29.9431 39.1484 29.3151 37.6941 28.3071 36.6356ZM24.3493 37.6941C25.1591 37.6941 25.8944 38.0383 26.4232 38.5891C26.952 39.1398 27.2825 39.9057 27.2825 40.7491C27.2825 41.5924 26.952 42.3583 26.4232 42.909C25.8944 43.4598 25.1591 43.804 24.3493 43.804C23.5396 43.804 22.8043 43.4598 22.2755 42.909C21.7467 42.3583 21.4161 41.5924 21.4161 40.7491C21.4161 39.9057 21.7467 39.1398 22.2755 38.5891C22.8043 38.0383 23.5396 37.6941 24.3493 37.6941ZM25.2665 39.8025C25.0351 39.5615 24.7046 39.4066 24.3493 39.4066C23.994 39.4066 23.6636 39.5615 23.4322 39.8025C23.2009 40.0434 23.0521 40.3876 23.0521 40.7577C23.0521 41.1277 23.2009 41.4719 23.4322 41.7129C23.6636 41.9538 23.994 42.1087 24.3493 42.1087C24.7046 42.1087 25.0351 41.9538 25.2665 41.7129C25.4978 41.4719 25.6466 41.1277 25.6466 40.7577C25.6466 40.3876 25.5061 40.0434 25.2665 39.8025Z" fill="#103741"/>
<path d="M19.7887 40.7575C19.7887 40.9296 19.6482 41.0759 19.483 41.0759C19.3177 41.0759 19.1772 40.9296 19.1772 40.7575C19.1772 39.2687 19.7556 37.9177 20.6975 36.9452C21.6312 35.9728 22.9284 35.3618 24.3578 35.3618C24.5231 35.3618 24.6635 35.5081 24.6635 35.6802C24.6635 35.8523 24.5231 35.9986 24.3578 35.9986C23.0937 35.9986 21.9534 36.5322 21.1272 37.3927C20.3009 38.2533 19.7887 39.4408 19.7887 40.7575Z" fill="#103741"/>
<path fill-rule="evenodd" clip-rule="evenodd" d="M43.8573 34.0798C47.4019 34.0798 50.269 37.0659 50.269 40.7577C50.269 44.4495 47.4019 47.4357 43.8573 47.4357C40.3127 47.4357 37.4456 44.4495 37.4456 40.7577C37.4456 37.0659 40.3127 34.0798 43.8573 34.0798ZM43.8573 38.5461C45.0306 38.5461 45.9725 39.5358 45.9725 40.7492C45.9725 41.9625 45.0223 42.9522 43.8573 42.9522C42.684 42.9522 41.7421 41.9625 41.7421 40.7492C41.7421 39.5358 42.684 38.5461 43.8573 38.5461Z" fill="white"/>
<path d="M43.8574 33.2278C45.8569 33.2278 47.6581 34.0711 48.9719 35.4308C50.2774 36.7905 51.0871 38.6751 51.0871 40.7577C51.0871 42.8402 50.2774 44.7162 48.9719 46.0845C47.6664 47.4442 45.8569 48.2875 43.8574 48.2875C41.8579 48.2875 40.0566 47.4442 38.7429 46.0845C37.4374 44.7248 36.6277 42.8402 36.6277 40.7577C36.6277 38.6751 37.4374 36.7991 38.7429 35.4308C40.0566 34.0711 41.8579 33.2278 43.8574 33.2278ZM47.8151 36.6356C46.7988 35.5771 45.4025 34.9317 43.8574 34.9317C42.3123 34.9317 40.9159 35.5857 39.8996 36.6356C38.8833 37.6941 38.2637 39.1484 38.2637 40.7577C38.2637 42.3669 38.8916 43.8212 39.8996 44.8797C40.9077 45.9382 42.3123 46.5836 43.8574 46.5836C45.4025 46.5836 46.7988 45.9296 47.8151 44.8797C48.8314 43.8299 49.4511 42.3669 49.4511 40.7577C49.4511 39.1484 48.8232 37.6941 47.8151 36.6356ZM43.8574 37.6941C44.6671 37.6941 45.4025 38.0383 45.9313 38.5891C46.4601 39.1398 46.7906 39.9057 46.7906 40.7491C46.7906 41.5924 46.4601 42.3583 45.9313 42.909C45.4025 43.4598 44.6671 43.804 43.8574 43.804C43.0477 43.804 42.3123 43.4598 41.7835 42.909C41.2547 42.3583 40.9242 41.5924 40.9242 40.7491C40.9242 39.9057 41.2547 39.1398 41.7835 38.5891C42.3123 38.0383 43.0477 37.6941 43.8574 37.6941ZM44.7745 39.8025C44.5432 39.5615 44.2127 39.4066 43.8574 39.4066C43.5021 39.4066 43.1716 39.5615 42.9402 39.8025C42.7089 40.0434 42.5602 40.3876 42.5602 40.7577C42.5602 41.1277 42.7089 41.4719 42.9402 41.7129C43.1716 41.9538 43.5021 42.1087 43.8574 42.1087C44.2127 42.1087 44.5432 41.9538 44.7745 41.7129C45.0059 41.4719 45.1546 41.1277 45.1546 40.7577C45.1546 40.3876 45.0141 40.0434 44.7745 39.8025Z" fill="#103741"/>
<path d="M39.2882 40.7575C39.2882 40.9296 39.1477 41.0759 38.9825 41.0759C38.809 41.0759 38.6768 40.9296 38.6768 40.7575C38.6768 39.2687 39.2551 37.9177 40.1971 36.9452C41.1307 35.9728 42.4279 35.3618 43.8573 35.3618C44.0226 35.3618 44.1631 35.5081 44.1631 35.6802C44.1631 35.8523 44.0226 35.9986 43.8573 35.9986C42.5932 35.9986 41.453 36.5322 40.6267 37.3927C39.8004 38.2533 39.2882 39.4408 39.2882 40.7575Z" fill="#103741"/>
<path fill-rule="evenodd" clip-rule="evenodd" d="M24.3494 39.3979C23.9942 39.3979 23.6637 39.5528 23.4323 39.7938C23.201 40.0348 23.0522 40.379 23.0522 40.749C23.0522 41.1191 23.201 41.4633 23.4323 41.7042C23.6637 41.9452 23.9942 42.1001 24.3494 42.1001C24.7047 42.1001 25.0352 41.9452 25.2666 41.7042C25.4979 41.4633 25.6467 41.1191 25.6467 40.749C25.6467 40.379 25.4979 40.0348 25.2666 39.7938C25.0352 39.5528 24.713 39.3979 24.3494 39.3979Z" fill="white"/>
<path fill-rule="evenodd" clip-rule="evenodd" d="M42.9404 39.8025C42.709 40.0434 42.5603 40.3876 42.5603 40.7577C42.5603 41.1277 42.709 41.4719 42.9404 41.7129C43.1717 41.9539 43.5022 42.1088 43.8575 42.1088C44.2128 42.1088 44.5433 41.9539 44.7747 41.7129C45.006 41.4719 45.1547 41.1277 45.1547 40.7577C45.1547 40.3876 45.006 40.0434 44.7747 39.8025C44.5433 39.5615 44.2128 39.4066 43.8575 39.4066C43.494 39.398 43.1717 39.5529 42.9404 39.8025Z" fill="white"/>
<path d="M25.6465 27.1694H42.9069M44.4437 27.1694H48.6328" stroke="#103741" stroke-width="1.5001" stroke-miterlimit="2.6131" stroke-linecap="round" stroke-linejoin="round"/>
<path fill-rule="evenodd" clip-rule="evenodd" d="M5.86646 23.9681C5.86646 21.8511 7.57679 19.3813 9.81594 19.8546L29.2659 23.9681L9.81594 28.0815C7.69247 28.529 5.86646 26.2313 5.86646 23.9681Z" fill="#E5C3EB"/>
<path d="M4.99878 23.9682C4.99878 23.6498 5.03183 23.3055 5.09793 22.9613L5.1062 22.9269C5.3045 21.9286 5.79198 20.9476 6.46951 20.2075C7.19661 19.4158 8.16332 18.8909 9.25397 18.8909C9.47706 18.8909 9.71667 18.9167 9.9728 18.9683L29.4228 23.0818C29.8937 23.1764 30.1912 23.6498 30.1003 24.1403C30.0259 24.5103 29.745 24.7857 29.4063 24.8459L9.9728 28.9594C9.72493 29.011 9.48533 29.0368 9.26224 29.0368C8.20464 29.0368 7.24619 28.5377 6.50256 27.7718C5.80025 27.0404 5.29622 26.0507 5.08965 24.9922C5.04008 24.6394 4.99878 24.2952 4.99878 23.9682ZM6.8 23.3228C6.75869 23.5293 6.74216 23.7444 6.74216 23.9682C6.74216 24.2005 6.76696 24.4329 6.80827 24.6394C6.94873 25.3451 7.28749 26.0077 7.75846 26.4982C8.18811 26.9457 8.72518 27.2297 9.28703 27.2297C9.41923 27.2297 9.54315 27.2211 9.65882 27.1953L24.9362 23.9682L9.65882 20.7411C9.53489 20.7153 9.41096 20.7067 9.27876 20.7067C8.69212 20.7067 8.16332 21.0079 7.73367 21.464C7.27923 21.9631 6.94874 22.6257 6.81654 23.2969L6.8 23.3228ZM29.4228 24.8545C29.3154 24.8718 29.2079 24.8718 29.1005 24.8545H29.4228Z" fill="#103741"/>
<path fill-rule="evenodd" clip-rule="evenodd" d="M7.7171 14.4847C8.5103 12.5398 11.0056 10.9564 12.8894 12.2989L29.2657 23.9681L9.81576 19.8804C7.68403 19.4243 6.86606 16.5673 7.7171 14.4847Z" fill="#BEEAB8"/>
<path d="M6.91536 14.1407C7.0393 13.8309 7.19629 13.5297 7.37806 13.2544C7.93991 12.4024 8.7579 11.6796 9.67504 11.2751C10.6418 10.8448 11.7241 10.7501 12.7322 11.1976C12.9552 11.2923 13.1701 11.4128 13.3684 11.5591L29.7447 23.2282C30.1413 23.5122 30.2404 24.0716 29.9678 24.4846C29.753 24.8116 29.3729 24.9407 29.0258 24.8461L9.63371 20.767C9.3941 20.7154 9.16276 20.638 8.94794 20.5519C7.97296 20.1216 7.27064 19.2783 6.87404 18.2714C6.50222 17.3162 6.40309 16.1975 6.60966 15.139C6.69228 14.7862 6.79143 14.4505 6.91536 14.1407ZM8.80746 14.2698C8.68352 14.4591 8.58438 14.6485 8.50175 14.8378C8.41913 15.0443 8.35304 15.2595 8.31173 15.4832C8.17127 16.1889 8.23737 16.9375 8.49351 17.583C8.72486 18.1681 9.10493 18.6587 9.62547 18.8824C9.73288 18.934 9.8568 18.9684 9.97248 18.9943L25.2499 22.2042L12.3851 13.0392C12.2695 12.9618 12.1621 12.8929 12.0464 12.8499C11.5093 12.6176 10.9062 12.6778 10.3443 12.9273C9.74114 13.2027 9.18754 13.6932 8.80746 14.2698Z" fill="#103741"/>
<path fill-rule="evenodd" clip-rule="evenodd" d="M13.129 6.32686C14.5997 4.86391 17.4998 4.45943 18.7144 6.46453L29.2739 23.9597L12.9968 12.1356C11.2121 10.8448 11.5508 7.88447 13.129 6.32686Z" fill="#16C4E3"/>
<path d="M12.5259 5.67271C12.7572 5.44897 13.0134 5.24243 13.286 5.05311C14.1206 4.50235 15.1534 4.18395 16.1449 4.19255C17.2025 4.20116 18.227 4.56258 18.9872 5.38871C19.1524 5.56943 19.3012 5.76737 19.4334 5.99111L29.9929 23.4862C30.249 23.9079 30.125 24.4673 29.7202 24.7254C29.4062 24.932 29.0096 24.8975 28.7287 24.6738L12.4929 12.8756C12.2863 12.7293 12.1045 12.5658 11.9475 12.3937C11.2204 11.5933 10.8982 10.5349 10.923 9.44196C10.9477 8.40929 11.2865 7.33359 11.8732 6.45582C12.0715 6.17184 12.2945 5.91367 12.5259 5.67271ZM14.2114 6.5849C14.0297 6.70538 13.8644 6.83446 13.7157 6.98075C13.5587 7.13565 13.4183 7.30776 13.2943 7.48848C12.8977 8.08226 12.6664 8.79653 12.6498 9.48497C12.6333 10.1218 12.8068 10.7242 13.1951 11.1545C13.2778 11.2491 13.3769 11.3352 13.4761 11.404L26.2582 20.6894L17.9626 6.94632C17.8883 6.82584 17.8139 6.72258 17.723 6.62792C17.3182 6.18903 16.7398 5.99111 16.1284 5.99111C15.4839 5.99111 14.7816 6.20626 14.2114 6.5849Z" fill="#103741"/>
<path fill-rule="evenodd" clip-rule="evenodd" d="M20.9868 1.18063C22.8872 0.431942 25.713 1.22365 26.0766 3.57297L29.2659 23.9682L18.6899 6.48166C17.5331 4.56262 18.9543 1.98095 20.9868 1.18063Z" fill="#FE5A86"/>
<path d="M20.6809 0.328785C20.9784 0.208307 21.2923 0.122236 21.6146 0.0706025C22.5895 -0.0929034 23.6554 0.0275862 24.5726 0.432048C25.5393 0.862327 26.349 1.61101 26.7456 2.6867C26.8282 2.91905 26.8943 3.16001 26.9356 3.41818L30.125 23.8134C30.1993 24.3039 29.8771 24.7686 29.4061 24.846C29.0426 24.9063 28.6956 24.7256 28.522 24.4158L17.9626 6.94644C17.8304 6.73131 17.7229 6.50756 17.6403 6.27521C17.2685 5.24254 17.3676 4.13244 17.7973 3.1428C18.2022 2.19618 18.921 1.35284 19.7886 0.776266C20.0695 0.61276 20.367 0.457869 20.6809 0.328785ZM21.8955 1.85196C21.689 1.88638 21.4824 1.94663 21.2923 2.01547C21.094 2.09292 20.8957 2.19619 20.714 2.31667C20.1273 2.70392 19.6481 3.26327 19.3754 3.89148C19.1276 4.46805 19.0532 5.09627 19.2598 5.64702C19.3011 5.7675 19.3589 5.87937 19.425 5.99124L27.7289 19.7257L25.2253 3.71077C25.2005 3.57308 25.1675 3.44399 25.1261 3.32351C24.9196 2.75554 24.4569 2.34248 23.895 2.09292C23.2836 1.82614 22.5565 1.74009 21.8955 1.85196Z" fill="#103741"/>
<path d="M49.7653 24.605C49.4596 24.9836 48.9143 25.0353 48.5425 24.7169C48.179 24.3985 48.1294 23.8305 48.4351 23.4432L54.8798 15.4401C55.0533 15.2249 55.293 15.113 55.5408 15.113H64.1256C64.6048 15.113 64.9931 15.5175 64.9931 16.0166C64.9931 16.5157 64.6048 16.9202 64.1256 16.9202H55.9374L49.7653 24.605Z" fill="#103741"/>
<path fill-rule="evenodd" clip-rule="evenodd" d="M44.312 8.62432C46.2785 10.0701 47.6501 12.3936 47.8979 14.5794C49.1125 14.6913 50.071 15.7583 50.071 17.0578C50.071 18.4347 48.9969 19.5448 47.6831 19.5448C47.4435 19.5448 47.2122 19.5104 46.9891 19.4415C46.3446 20.5775 45.3944 21.4122 44.2459 22.1437V23.7787H36.1156V22.1437C34.9671 21.4122 34.0252 20.5775 33.3725 19.4415C33.1494 19.5104 32.918 19.5448 32.6784 19.5448C31.3564 19.5448 30.2905 18.4347 30.2905 17.0578C30.2905 15.7583 31.249 14.6913 32.4636 14.5794C32.728 12.1956 34.3226 9.657 36.5783 8.2629C38.52 5.53493 44.4938 6.88601 47.0056 4.63135C47.0056 4.63135 47.8153 7.57444 44.312 8.62432Z" fill="white"/>
<path d="M45.3775 8.79659C46.0798 9.442 46.6995 10.1993 47.1788 11.0082C47.7654 11.9892 48.1785 13.0477 48.352 14.0976C48.9304 14.2439 49.4344 14.5623 49.8228 15.0012C50.2937 15.5433 50.5829 16.2576 50.5829 17.0493C50.5829 17.8927 50.2524 18.65 49.7319 19.2007C49.2031 19.7515 48.476 20.0871 47.6662 20.0871C47.5258 20.0871 47.3771 20.0785 47.2366 20.0527H47.2201C46.9144 20.526 46.5508 20.9562 46.1459 21.3349C45.7328 21.7307 45.2619 22.0922 44.7578 22.4278V23.7617C44.7578 24.0629 44.5182 24.3124 44.2291 24.3124H36.0987C35.8095 24.3124 35.5699 24.0629 35.5699 23.7617V22.4278C35.0659 22.0922 34.6032 21.7308 34.1818 21.3263C33.777 20.939 33.4217 20.5174 33.1077 20.044H33.0912C32.9507 20.0699 32.8103 20.0785 32.6615 20.0785C31.8518 20.0785 31.1247 19.7343 30.5959 19.1921C30.0671 18.6413 29.7449 17.8841 29.7449 17.0407C29.7449 16.249 30.034 15.5347 30.505 14.9926C30.8933 14.5537 31.3974 14.2353 31.9757 14.089C32.174 12.9273 32.6533 11.7569 33.339 10.6898C34.0744 9.56247 35.0494 8.56424 36.1896 7.83277C37.3712 6.27516 39.6186 5.96533 41.8742 5.65553C43.725 5.40597 45.5758 5.14783 46.6417 4.20121C46.8648 4.00329 47.1953 4.02908 47.3853 4.26143C47.4432 4.33028 47.4845 4.41635 47.501 4.4938C47.5919 4.8036 48.1537 7.46272 45.3775 8.79659ZM46.2864 11.5934C45.708 10.6296 44.9314 9.7604 44.0142 9.08056C43.9068 9.00311 43.8242 8.89123 43.7911 8.75354C43.7498 8.56422 43.7994 8.3749 43.9151 8.24582L43.9233 8.2372L43.9316 8.22861L43.9481 8.21139L43.9647 8.19419L43.9812 8.18557C43.9977 8.17697 44.0142 8.15977 44.0307 8.15117C44.039 8.14256 44.0555 8.14255 44.0638 8.13394L44.0721 8.12535C44.0969 8.10814 44.1299 8.09953 44.1547 8.09092C46.0137 7.54017 46.4682 6.40423 46.5426 5.61251C45.2949 6.30957 43.6589 6.53332 42.023 6.75707C39.9491 7.04105 37.8834 7.32503 36.9911 8.58145C36.9498 8.64169 36.9002 8.6847 36.8341 8.72773C35.793 9.37314 34.8924 10.2853 34.2231 11.318C33.5456 12.3593 33.0994 13.521 32.9755 14.6312C32.9507 14.8893 32.7524 15.0959 32.4963 15.1131C32.0253 15.1561 31.5957 15.3884 31.29 15.7413C30.9842 16.0855 30.8025 16.5416 30.8025 17.0493C30.8025 17.5829 31.009 18.0734 31.3478 18.4176C31.6865 18.7704 32.1493 18.9856 32.6615 18.9856C32.7607 18.9856 32.8516 18.977 32.9342 18.9684C33.0251 18.9511 33.116 18.9339 33.1986 18.9081C33.4217 18.8393 33.6778 18.9339 33.8017 19.1577C34.0992 19.674 34.4627 20.1301 34.8841 20.5346C35.3138 20.939 35.793 21.3091 36.3218 21.6447C36.4953 21.7394 36.611 21.9201 36.611 22.1352V23.2195H43.6837V22.1352C43.6837 21.9545 43.7746 21.7738 43.9316 21.6705C44.4769 21.3177 44.9727 20.9476 45.4106 20.5346C45.832 20.1301 46.1955 19.6826 46.493 19.1663C46.6087 18.9425 46.8648 18.8307 47.1044 18.9081C47.187 18.9339 47.2779 18.9597 47.3688 18.9684C47.4514 18.9856 47.5506 18.9856 47.6415 18.9856C48.1537 18.9856 48.6247 18.7704 48.9552 18.4176C49.294 18.0648 49.5005 17.5829 49.5005 17.0493C49.5005 16.5416 49.3188 16.0855 49.013 15.7413C48.7156 15.397 48.3025 15.1733 47.8398 15.1217C47.5836 15.1131 47.3606 14.9065 47.3275 14.6312C47.2531 13.6157 46.8731 12.5572 46.2864 11.5934Z" fill="#103741"/>
<path fill-rule="evenodd" clip-rule="evenodd" d="M37.1645 16.8084C37.7512 16.8084 38.2304 16.9805 38.2304 17.1956C38.2304 17.4108 37.7512 17.5829 37.1645 17.5829C36.5779 17.5829 36.0987 17.4108 36.0987 17.1956C36.1069 16.9805 36.5779 16.8084 37.1645 16.8084ZM32.9754 15.8962C31.0172 15.0012 30.6867 18.2627 33.0581 18.5123C31.0751 17.5312 31.6452 15.6466 32.9754 15.8962ZM47.377 15.8962C49.3352 15.0012 49.6657 18.2627 47.2944 18.5123C49.2774 17.5312 48.7073 15.6466 47.377 15.8962ZM43.1384 12.0237C43.758 12.0237 44.262 12.781 44.262 13.719C44.262 14.657 43.758 15.4143 43.1384 15.4143C42.5187 15.4143 42.0146 14.657 42.0146 13.719C42.0146 12.781 42.5187 12.0237 43.1384 12.0237ZM37.5198 12.0237C38.1395 12.0237 38.6435 12.781 38.6435 13.719C38.6435 14.657 38.1395 15.4143 37.5198 15.4143C36.9001 15.4143 36.3961 14.657 36.3961 13.719C36.3961 12.781 36.9001 12.0237 37.5198 12.0237ZM44.9065 11.7139C44.9065 11.7139 43.097 10.8189 42.0146 11.0168C42.0146 11.0168 41.8742 10.6124 42.1551 10.2337C42.436 9.85508 44.3447 10.8964 44.9065 11.7139ZM35.446 11.7139C35.446 11.7139 37.2472 10.8189 38.3378 11.0168C38.3378 11.0168 38.4783 10.6124 38.1974 10.2337C37.9164 9.85508 36.0078 10.8964 35.446 11.7139ZM37.9164 18.65C38.784 21.3607 41.5685 21.3607 42.4278 18.65C41.0231 20.3883 39.3293 20.3883 37.9164 18.65ZM41.0149 16.2834C39.0567 15.0356 38.5361 18.8479 41.0149 18.0476C39.7177 17.9874 39.4037 16.2318 41.0149 16.2834ZM43.1879 16.8084C43.7746 16.8084 44.2538 16.9805 44.2538 17.1956C44.2538 17.4108 43.7746 17.5829 43.1879 17.5829C42.6013 17.5829 42.1221 17.4108 42.1221 17.1956C42.1303 16.9805 42.6013 16.8084 43.1879 16.8084Z" fill="#103741"/>
<path fill-rule="evenodd" clip-rule="evenodd" d="M57.1022 32.0059C64.9681 33.8647 70 36.6959 70 39.8627C70 45.4563 54.326 50.0001 35 50.0001C15.6657 50.0001 0 45.465 0 39.8627C0 36.6959 5.0236 33.8647 12.8978 32.0059C8.48559 33.3053 5.80855 35.0092 5.80855 36.8594C5.80855 40.9642 18.8798 44.2946 35 44.2946C51.1202 44.2946 64.1915 40.9642 64.1915 36.8594C64.1915 35.0006 61.5227 33.3053 57.1022 32.0059Z" fill="#FC800A"/>
</svg>
